{
    "asset" : {
        "generator" : "Khronos glTF Blender I/O v1.4.40",
        "version" : "2.0"
    },
    "scene" : 0,
    "scenes" : [
        {
            "name" : "Scene",
            "nodes" : [
                0
            ]
        }
    ],
    "nodes" : [
        {
            "mesh" : 0,
            "name" : "tower"
        }
    ],
    "materials" : [
        {
            "name" : "stone",
            "pbrMetallicRoughness" : {
                "baseColorFactor" : [
                    0.5843137502670288,
                    0.686274528503418,
                    0.7568627595901489,
                    1
                ],
                "metallicFactor" : 0.25,
                "roughnessFactor" : 0.8500000238418579
            }
        },
        {
            "name" : "woodDark",
            "pbrMetallicRoughness" : {
                "baseColorFactor" : [
                    0.5215686559677124,
                    0.3294117748737335,
                    0.19607843458652496,
                    1
                ],
                "metallicFactor" : 0.25,
                "roughnessFactor" : 0.8500000238418579
            }
        },
        {
            "name" : "_defaultMat",
            "pbrMetallicRoughness" : {
                "metallicFactor" : 0,
                "roughnessFactor" : 0.5
            }
        },
        {
            "name" : "iron",
            "pbrMetallicRoughness" : {
                "baseColorFactor" : [
                    0.3764705955982208,
                    0.3764705955982208,
                    0.3764705955982208,
                    1
                ],
                "metallicFactor" : 0.25,
                "roughnessFactor" : 0.8500000238418579
            }
        },
        {
            "name" : "wood",
            "pbrMetallicRoughness" : {
                "baseColorFactor" : [
                    0.729411780834198,
                    0.4627451002597809,
                    0.27843138575553894,
                    1
                ],
                "metallicFactor" : 0.25,
                "roughnessFactor" : 0.8500000238418579
            }
        },
        {
            "name" : "sand",
            "pbrMetallicRoughness" : {
                "baseColorFactor" : [
                    0.8470588326454163,
                    0.7607843279838562,
                    0.6078431606292725,
                    1
                ],
                "metallicFactor" : 0.25,
                "roughnessFactor" : 0.8500000238418579
            }
        },
        {
            "name" : "textile",
            "pbrMetallicRoughness" : {
                "baseColorFactor" : [
                    0.8196078538894653,
                    0.7529411911964417,
                    0.6705882549285889,
                    1
                ],
                "metallicFactor" : 0.25,
                "roughnessFactor" : 0.8500000238418579
            }
        }
    ],
    "meshes" : [
        {
            "name" : "tower",
            "primitives" : [
                {
                    "attributes" : {
                        "POSITION" : 0,
                        "NORMAL" : 1,
                        "TEXCOORD_0" : 2
                    },
                    "indices" : 3,
                    "material" : 0
                },
                {
                    "attributes" : {
                        "POSITION" : 4,
                        "NORMAL" : 5,
                        "TEXCOORD_0" : 6
                    },
                    "indices" : 7,
                    "material" : 1
                },
                {
                    "attributes" : {
                        "POSITION" : 8,
                        "NORMAL" : 9,
                        "TEXCOORD_0" : 10
                    },
                    "indices" : 11,
                    "material" : 2
                },
                {
                    "attributes" : {
                        "POSITION" : 12,
                        "NORMAL" : 13,
                        "TEXCOORD_0" : 14
                    },
                    "indices" : 15,
                    "material" : 3
                },
                {
                    "attributes" : {
                        "POSITION" : 16,
                        "NORMAL" : 17,
                        "TEXCOORD_0" : 18
                    },
                    "indices" : 19,
                    "material" : 4
                },
                {
                    "attributes" : {
                        "POSITION" : 20,
                        "NORMAL" : 21,
                        "TEXCOORD_0" : 22
                    },
                    "indices" : 23,
                    "material" : 5
                },
                {
                    "attributes" : {
                        "POSITION" : 24,
                        "NORMAL" : 25,
                        "TEXCOORD_0" : 26
                    },
                    "indices" : 27,
                    "material" : 6
                }
            ]
        }
    ],
    "accessors" : [
        {
            "bufferView" : 0,
            "componentType" : 5126,
            "count" : 1484,
            "max" : [
                1.6747270822525024,
                3.7149999141693115,
                1.6213388442993164
            ],
            "min" : [
                -1.6476624011993408,
                1.0587911840678754e-22,
                -1.590000033378601
            ],
            "type" : "VEC3"
        },
        {
            "bufferView" : 1,
            "componentType" : 5126,
            "count" : 1484,
            "type" : "VEC3"
        },
        {
            "bufferView" : 2,
            "componentType" : 5126,
            "count" : 1484,
            "type" : "VEC2"
        },
        {
            "bufferView" : 3,
            "componentType" : 5123,
            "count" : 1692,
            "type" : "SCALAR"
        },
        {
            "bufferView" : 4,
            "componentType" : 5126,
            "count" : 107,
            "max" : [
                0.9783986806869507,
                1.3679803609848022,
                -0.6032146215438843
            ],
            "min" : [
                0.4255731403827667,
                1.0587911840678754e-22,
                -0.9223886728286743
            ],
            "type" : "VEC3"
        },
        {
            "bufferView" : 5,
            "componentType" : 5126,
            "count" : 107,
            "type" : "VEC3"
        },
        {
            "bufferView" : 6,
            "componentType" : 5126,
            "count" : 107,
            "type" : "VEC2"
        },
        {
            "bufferView" : 7,
            "componentType" : 5123,
            "count" : 108,
            "type" : "SCALAR"
        },
        {
            "bufferView" : 8,
            "componentType" : 5126,
            "count" : 384,
            "max" : [
                0.6982405781745911,
                2.9829115867614746,
                1.2387539148330688
            ],
            "min" : [
                -0.5069210529327393,
                1.2222505807876587,
                -0.5482015609741211
            ],
            "type" : "VEC3"
        },
        {
            "bufferView" : 9,
            "componentType" : 5126,
            "count" : 384,
            "type" : "VEC3"
        },
        {
            "bufferView" : 10,
            "componentType" : 5126,
            "count" : 384,
            "type" : "VEC2"
        },
        {
            "bufferView" : 11,
            "componentType" : 5123,
            "count" : 438,
            "type" : "SCALAR"
        },
        {
            "bufferView" : 12,
            "componentType" : 5126,
            "count" : 76,
            "max" : [
                0.5975255966186523,
                2.9294867515563965,
                1.1172782182693481
            ],
            "min" : [
                -0.40854957699775696,
                1.274963140487671,
                -0.43078500032424927
            ],
            "type" : "VEC3"
        },
        {
            "bufferView" : 13,
            "componentType" : 5126,
            "count" : 76,
            "type" : "VEC3"
        },
        {
            "bufferView" : 14,
            "componentType" : 5126,
            "count" : 76,
            "type" : "VEC2"
        },
        {
            "bufferView" : 15,
            "componentType" : 5123,
            "count" : 78,
            "type" : "SCALAR"
        },
        {
            "bufferView" : 16,
            "componentType" : 5126,
            "count" : 283,
            "max" : [
                1.2005068063735962,
                3.2800002098083496,
                1.7501695156097412
            ],
            "min" : [
                -1.2829607725143433,
                0.10501735657453537,
                -1.1174918413162231
            ],
            "type" : "VEC3"
        },
        {
            "bufferView" : 17,
            "componentType" : 5126,
            "count" : 283,
            "type" : "VEC3"
        },
        {
            "bufferView" : 18,
            "componentType" : 5126,
            "count" : 283,
            "type" : "VEC2"
        },
        {
            "bufferView" : 19,
            "componentType" : 5123,
            "count" : 327,
            "type" : "SCALAR"
        },
        {
            "bufferView" : 20,
            "componentType" : 5126,
            "count" : 309,
            "max" : [
                1.6747270822525024,
                1.1399999856948853,
                1.6213388442993164
            ],
            "min" : [
                -1.6476624011993408,
                1.0587911840678754e-22,
                -1.590000033378601
            ],
            "type" : "VEC3"
        },
        {
            "bufferView" : 21,
            "componentType" : 5126,
            "count" : 309,
            "type" : "VEC3"
        },
        {
            "bufferView" : 22,
            "componentType" : 5126,
            "count" : 309,
            "type" : "VEC2"
        },
        {
            "bufferView" : 23,
            "componentType" : 5123,
            "count" : 357,
            "type" : "SCALAR"
        },
        {
            "bufferView" : 24,
            "componentType" : 5126,
            "count" : 12,
            "max" : [
                0.7475615739822388,
                3.2649998664855957,
                1.105909824371338
            ],
            "min" : [
                -0.6200153827667236,
                3.2649998664855957,
                -0.4732321500778198
            ],
            "type" : "VEC3"
        },
        {
            "bufferView" : 25,
            "componentType" : 5126,
            "count" : 12,
            "type" : "VEC3"
        },
        {
            "bufferView" : 26,
            "componentType" : 5126,
            "count" : 12,
            "type" : "VEC2"
        },
        {
            "bufferView" : 27,
            "componentType" : 5123,
            "count" : 12,
            "type" : "SCALAR"
        }
    ],
    "bufferViews" : [
        {
            "buffer" : 0,
            "byteLength" : 17808,
            "byteOffset" : 0
        },
        {
            "buffer" : 0,
            "byteLength" : 17808,
            "byteOffset" : 17808
        },
        {
            "buffer" : 0,
            "byteLength" : 11872,
            "byteOffset" : 35616
        },
        {
            "buffer" : 0,
            "byteLength" : 3384,
            "byteOffset" : 47488
        },
        {
            "buffer" : 0,
            "byteLength" : 1284,
            "byteOffset" : 50872
        },
        {
            "buffer" : 0,
            "byteLength" : 1284,
            "byteOffset" : 52156
        },
        {
            "buffer" : 0,
            "byteLength" : 856,
            "byteOffset" : 53440
        },
        {
            "buffer" : 0,
            "byteLength" : 216,
            "byteOffset" : 54296
        },
        {
            "buffer" : 0,
            "byteLength" : 4608,
            "byteOffset" : 54512
        },
        {
            "buffer" : 0,
            "byteLength" : 4608,
            "byteOffset" : 59120
        },
        {
            "buffer" : 0,
            "byteLength" : 3072,
            "byteOffset" : 63728
        },
        {
            "buffer" : 0,
            "byteLength" : 876,
            "byteOffset" : 66800
        },
        {
            "buffer" : 0,
            "byteLength" : 912,
            "byteOffset" : 67676
        },
        {
            "buffer" : 0,
            "byteLength" : 912,
            "byteOffset" : 68588
        },
        {
            "buffer" : 0,
            "byteLength" : 608,
            "byteOffset" : 69500
        },
        {
            "buffer" : 0,
            "byteLength" : 156,
            "byteOffset" : 70108
        },
        {
            "buffer" : 0,
            "byteLength" : 3396,
            "byteOffset" : 70264
        },
        {
            "buffer" : 0,
            "byteLength" : 3396,
            "byteOffset" : 73660
        },
        {
            "buffer" : 0,
            "byteLength" : 2264,
            "byteOffset" : 77056
        },
        {
            "buffer" : 0,
            "byteLength" : 654,
            "byteOffset" : 79320
        },
        {
            "buffer" : 0,
            "byteLength" : 3708,
            "byteOffset" : 79976
        },
        {
            "buffer" : 0,
            "byteLength" : 3708,
            "byteOffset" : 83684
        },
        {
            "buffer" : 0,
            "byteLength" : 2472,
            "byteOffset" : 87392
        },
        {
            "buffer" : 0,
            "byteLength" : 714,
            "byteOffset" : 89864
        },
        {
            "buffer" : 0,
            "byteLength" : 144,
            "byteOffset" : 90580
        },
        {
            "buffer" : 0,
            "byteLength" : 144,
            "byteOffset" : 90724
        },
        {
            "buffer" : 0,
            "byteLength" : 96,
            "byteOffset" : 90868
        },
        {
            "buffer" : 0,
            "byteLength" : 24,
            "byteOffset" : 90964
        }
    ],
    "buffers" : [
        {
            "byteLength" : 90988,
            "uri" : "tower.bin"
        }
    ]
}
