{
    "asset" : {
        "generator" : "Khronos glTF Blender I/O v1.5.17",
        "version" : "2.0"
    },
    "scene" : 0,
    "scenes" : [
        {
            "name" : "Scene",
            "nodes" : [
                0
            ]
        }
    ],
    "nodes" : [
        {
            "mesh" : 0,
            "name" : "materialowy_chlopiec"
        }
    ],
    "materials" : [
        {
            "name" : "Material #22",
            "pbrMetallicRoughness" : {
                "baseColorFactor" : [
                    0.9977368116378784,
                    0.7553957104682922,
                    0.17944906651973724,
                    1
                ],
                "roughnessFactor" : 0.28999999165534973
            }
        },
        {
            "name" : "Material #34",
            "pbrMetallicRoughness" : {
                "baseColorFactor" : [
                    0.24460431933403015,
                    0.05142360180616379,
                    0.04399358481168747,
                    1
                ],
                "roughnessFactor" : 0.3999999761581421
            }
        },
        {
            "name" : "Material #68",
            "pbrMetallicRoughness" : {
                "baseColorFactor" : [
                    0.7266187071800232,
                    0.4600175619125366,
                    0.4892086386680603,
                    1
                ],
                "metallicFactor" : 0,
                "roughnessFactor" : 0.6304810047149658
            }
        },
        {
            "name" : "Material #69",
            "pbrMetallicRoughness" : {
                "baseColorFactor" : [
                    0.07058823853731155,
                    0.07058823853731155,
                    0.07058823853731155,
                    1
                ],
                "metallicFactor" : 0,
                "roughnessFactor" : 0.6304810047149658
            }
        },
        {
            "name" : "Material #71",
            "pbrMetallicRoughness" : {
                "baseColorFactor" : [
                    0.4460431635379791,
                    0.03850730508565903,
                    0.03850730508565903,
                    1
                ],
                "metallicFactor" : 0,
                "roughnessFactor" : 0.5464465618133545
            }
        },
        {
            "name" : "Material #72",
            "pbrMetallicRoughness" : {
                "baseColorFactor" : [
                    0.03525179997086525,
                    0.03525179997086525,
                    0.03525179997086525,
                    1
                ],
                "metallicFactor" : 0,
                "roughnessFactor" : 0.4599999785423279
            }
        }
    ],
    "meshes" : [
        {
            "name" : "materialowy_chlopiec",
            "primitives" : [
                {
                    "attributes" : {
                        "POSITION" : 0,
                        "NORMAL" : 1,
                        "TEXCOORD_0" : 2
                    },
                    "indices" : 3,
                    "material" : 0
                },
                {
                    "attributes" : {
                        "POSITION" : 4,
                        "NORMAL" : 5,
                        "TEXCOORD_0" : 6
                    },
                    "indices" : 7,
                    "material" : 1
                },
                {
                    "attributes" : {
                        "POSITION" : 8,
                        "NORMAL" : 9,
                        "TEXCOORD_0" : 10
                    },
                    "indices" : 11,
                    "material" : 2
                },
                {
                    "attributes" : {
                        "POSITION" : 12,
                        "NORMAL" : 13,
                        "TEXCOORD_0" : 14
                    },
                    "indices" : 15,
                    "material" : 3
                },
                {
                    "attributes" : {
                        "POSITION" : 16,
                        "NORMAL" : 17,
                        "TEXCOORD_0" : 18
                    },
                    "indices" : 19,
                    "material" : 4
                },
                {
                    "attributes" : {
                        "POSITION" : 20,
                        "NORMAL" : 21,
                        "TEXCOORD_0" : 22
                    },
                    "indices" : 23,
                    "material" : 5
                }
            ]
        }
    ],
    "accessors" : [
        {
            "bufferView" : 0,
            "componentType" : 5126,
            "count" : 12,
            "max" : [
                0.04592657834291458,
                0.06628652662038803,
                0.07520916312932968
            ],
            "min" : [
                -0.045926664024591446,
                0.02961568906903267,
                0.05617350712418556
            ],
            "type" : "VEC3"
        },
        {
            "bufferView" : 1,
            "componentType" : 5126,
            "count" : 12,
            "type" : "VEC3"
        },
        {
            "bufferView" : 2,
            "componentType" : 5126,
            "count" : 12,
            "type" : "VEC2"
        },
        {
            "bufferView" : 3,
            "componentType" : 5123,
            "count" : 12,
            "type" : "SCALAR"
        },
        {
            "bufferView" : 4,
            "componentType" : 5126,
            "count" : 48,
            "max" : [
                0.10178250819444656,
                0.06628652662038803,
                0.06532032042741776
            ],
            "min" : [
                -0.10178261995315552,
                0.03438802808523178,
                -0.0695253312587738
            ],
            "type" : "VEC3"
        },
        {
            "bufferView" : 5,
            "componentType" : 5126,
            "count" : 48,
            "type" : "VEC3"
        },
        {
            "bufferView" : 6,
            "componentType" : 5126,
            "count" : 48,
            "type" : "VEC2"
        },
        {
            "bufferView" : 7,
            "componentType" : 5123,
            "count" : 48,
            "type" : "SCALAR"
        },
        {
            "bufferView" : 8,
            "componentType" : 5126,
            "count" : 1488,
            "max" : [
                0.5459303259849548,
                0.4651416540145874,
                0.08451405167579651
            ],
            "min" : [
                -0.5459303259849548,
                0.05324207991361618,
                -0.08451405167579651
            ],
            "type" : "VEC3"
        },
        {
            "bufferView" : 9,
            "componentType" : 5126,
            "count" : 1488,
            "type" : "VEC3"
        },
        {
            "bufferView" : 10,
            "componentType" : 5126,
            "count" : 1488,
            "type" : "VEC2"
        },
        {
            "bufferView" : 11,
            "componentType" : 5123,
            "count" : 1488,
            "type" : "SCALAR"
        },
        {
            "bufferView" : 12,
            "componentType" : 5126,
            "count" : 600,
            "max" : [
                0.10807859897613525,
                0.42319077253341675,
                0.0804826021194458
            ],
            "min" : [
                -0.10807881504297256,
                -0.495830774307251,
                -0.057555630803108215
            ],
            "type" : "VEC3"
        },
        {
            "bufferView" : 13,
            "componentType" : 5126,
            "count" : 600,
            "type" : "VEC3"
        },
        {
            "bufferView" : 14,
            "componentType" : 5126,
            "count" : 600,
            "type" : "VEC2"
        },
        {
            "bufferView" : 15,
            "componentType" : 5123,
            "count" : 600,
            "type" : "SCALAR"
        },
        {
            "bufferView" : 16,
            "componentType" : 5126,
            "count" : 438,
            "max" : [
                0.11807195842266083,
                0.49583083391189575,
                0.07938283681869507
            ],
            "min" : [
                -0.26915624737739563,
                -0.2897810637950897,
                -0.07372317463159561
            ],
            "type" : "VEC3"
        },
        {
            "bufferView" : 17,
            "componentType" : 5126,
            "count" : 438,
            "type" : "VEC3"
        },
        {
            "bufferView" : 18,
            "componentType" : 5126,
            "count" : 438,
            "type" : "VEC2"
        },
        {
            "bufferView" : 19,
            "componentType" : 5123,
            "count" : 438,
            "type" : "SCALAR"
        },
        {
            "bufferView" : 20,
            "componentType" : 5126,
            "count" : 246,
            "max" : [
                0.11807195842266083,
                0.03912917524576187,
                0.07087681442499161
            ],
            "min" : [
                -0.11807209998369217,
                -0.2897810637950897,
                -0.0630563348531723
            ],
            "type" : "VEC3"
        },
        {
            "bufferView" : 21,
            "componentType" : 5126,
            "count" : 246,
            "type" : "VEC3"
        },
        {
            "bufferView" : 22,
            "componentType" : 5126,
            "count" : 246,
            "type" : "VEC2"
        },
        {
            "bufferView" : 23,
            "componentType" : 5123,
            "count" : 246,
            "type" : "SCALAR"
        }
    ],
    "bufferViews" : [
        {
            "buffer" : 0,
            "byteLength" : 144,
            "byteOffset" : 0
        },
        {
            "buffer" : 0,
            "byteLength" : 144,
            "byteOffset" : 144
        },
        {
            "buffer" : 0,
            "byteLength" : 96,
            "byteOffset" : 288
        },
        {
            "buffer" : 0,
            "byteLength" : 24,
            "byteOffset" : 384
        },
        {
            "buffer" : 0,
            "byteLength" : 576,
            "byteOffset" : 408
        },
        {
            "buffer" : 0,
            "byteLength" : 576,
            "byteOffset" : 984
        },
        {
            "buffer" : 0,
            "byteLength" : 384,
            "byteOffset" : 1560
        },
        {
            "buffer" : 0,
            "byteLength" : 96,
            "byteOffset" : 1944
        },
        {
            "buffer" : 0,
            "byteLength" : 17856,
            "byteOffset" : 2040
        },
        {
            "buffer" : 0,
            "byteLength" : 17856,
            "byteOffset" : 19896
        },
        {
            "buffer" : 0,
            "byteLength" : 11904,
            "byteOffset" : 37752
        },
        {
            "buffer" : 0,
            "byteLength" : 2976,
            "byteOffset" : 49656
        },
        {
            "buffer" : 0,
            "byteLength" : 7200,
            "byteOffset" : 52632
        },
        {
            "buffer" : 0,
            "byteLength" : 7200,
            "byteOffset" : 59832
        },
        {
            "buffer" : 0,
            "byteLength" : 4800,
            "byteOffset" : 67032
        },
        {
            "buffer" : 0,
            "byteLength" : 1200,
            "byteOffset" : 71832
        },
        {
            "buffer" : 0,
            "byteLength" : 5256,
            "byteOffset" : 73032
        },
        {
            "buffer" : 0,
            "byteLength" : 5256,
            "byteOffset" : 78288
        },
        {
            "buffer" : 0,
            "byteLength" : 3504,
            "byteOffset" : 83544
        },
        {
            "buffer" : 0,
            "byteLength" : 876,
            "byteOffset" : 87048
        },
        {
            "buffer" : 0,
            "byteLength" : 2952,
            "byteOffset" : 87924
        },
        {
            "buffer" : 0,
            "byteLength" : 2952,
            "byteOffset" : 90876
        },
        {
            "buffer" : 0,
            "byteLength" : 1968,
            "byteOffset" : 93828
        },
        {
            "buffer" : 0,
            "byteLength" : 492,
            "byteOffset" : 95796
        }
    ],
    "buffers" : [
        {
            "byteLength" : 96288,
            "uri" : "data:application/octet-stream;base64,"
        }
    ]
}
