{"asset":{"version":"2.0","generator":"babylon.js glTF exporter for 3dsmax 2021 v20210401.5"},"scene":0,"scenes":[{"nodes":[0]}],"nodes":[{"mesh":0,"translation":[5.904436E-08,0.4958304,-0.0134510761],"name":"materiałowy_chłopiec"}],"meshes":[{"primitives":[{"attributes":{"POSITION":1,"NORMAL":2,"TEXCOORD_0":3},"indices":0,"material":0},{"attributes":{"POSITION":5,"NORMAL":6,"TEXCOORD_0":7},"indices":4,"material":1},{"attributes":{"POSITION":9,"NORMAL":10,"TEXCOORD_0":11},"indices":8,"material":2},{"attributes":{"POSITION":13,"NORMAL":14,"TEXCOORD_0":15},"indices":12,"material":3},{"attributes":{"POSITION":17,"NORMAL":18,"TEXCOORD_0":19},"indices":16,"material":4},{"attributes":{"POSITION":21,"NORMAL":22,"TEXCOORD_0":23},"indices":20,"material":5}],"name":"materiałowy_chłopiec"}],"accessors":[{"bufferView":0,"componentType":5123,"count":12,"type":"SCALAR","name":"accessorIndices"},{"bufferView":1,"componentType":5126,"count":12,"max":[0.04592658,0.06628653,0.07520916],"min":[-0.045926664,0.02961569,0.0561735071],"type":"VEC3","name":"accessorPositions"},{"bufferView":1,"byteOffset":144,"componentType":5126,"count":12,"type":"VEC3","name":"accessorNormals"},{"bufferView":2,"componentType":5126,"count":12,"type":"VEC2","name":"accessorUVs"},{"bufferView":0,"byteOffset":24,"componentType":5123,"count":48,"type":"SCALAR","name":"accessorIndices"},{"bufferView":1,"byteOffset":288,"componentType":5126,"count":48,"max":[0.101782508,0.06628653,0.06532032],"min":[-0.10178262,0.0343880281,-0.06952533],"type":"VEC3","name":"accessorPositions"},{"bufferView":1,"byteOffset":864,"componentType":5126,"count":48,"type":"VEC3","name":"accessorNormals"},{"bufferView":2,"byteOffset":96,"componentType":5126,"count":48,"type":"VEC2","name":"accessorUVs"},{"bufferView":0,"byteOffset":120,"componentType":5123,"count":1488,"type":"SCALAR","name":"accessorIndices"},{"bufferView":1,"byteOffset":1440,"componentType":5126,"count":1488,"max":[0.5459303,0.465141654,0.08451405],"min":[-0.5459303,0.05324208,-0.08451405],"type":"VEC3","name":"accessorPositions"},{"bufferView":1,"byteOffset":19296,"componentType":5126,"count":1488,"type":"VEC3","name":"accessorNormals"},{"bufferView":2,"byteOffset":480,"componentType":5126,"count":1488,"type":"VEC2","name":"accessorUVs"},{"bufferView":0,"byteOffset":3096,"componentType":5123,"count":600,"type":"SCALAR","name":"accessorIndices"},{"bufferView":1,"byteOffset":37152,"componentType":5126,"count":600,"max":[0.1080786,0.423190773,0.0804826],"min":[-0.108078815,-0.495830774,-0.05755563],"type":"VEC3","name":"accessorPositions"},{"bufferView":1,"byteOffset":44352,"componentType":5126,"count":600,"type":"VEC3","name":"accessorNormals"},{"bufferView":2,"byteOffset":12384,"componentType":5126,"count":600,"type":"VEC2","name":"accessorUVs"},{"bufferView":0,"byteOffset":4296,"componentType":5123,"count":438,"type":"SCALAR","name":"accessorIndices"},{"bufferView":1,"byteOffset":51552,"componentType":5126,"count":438,"max":[0.118071958,0.495830834,0.07938284],"min":[-0.269156247,-0.289781064,-0.0737231746],"type":"VEC3","name":"accessorPositions"},{"bufferView":1,"byteOffset":56808,"componentType":5126,"count":438,"type":"VEC3","name":"accessorNormals"},{"bufferView":2,"byteOffset":17184,"componentType":5126,"count":438,"type":"VEC2","name":"accessorUVs"},{"bufferView":0,"byteOffset":5172,"componentType":5123,"count":246,"type":"SCALAR","name":"accessorIndices"},{"bufferView":1,"byteOffset":62064,"componentType":5126,"count":246,"max":[0.118071958,0.0391291752,0.0708768144],"min":[-0.1180721,-0.289781064,-0.0630563349],"type":"VEC3","name":"accessorPositions"},{"bufferView":1,"byteOffset":65016,"componentType":5126,"count":246,"type":"VEC3","name":"accessorNormals"},{"bufferView":2,"byteOffset":20688,"componentType":5126,"count":246,"type":"VEC2","name":"accessorUVs"}],"bufferViews":[{"buffer":0,"byteLength":5664,"name":"bufferViewScalar"},{"buffer":0,"byteOffset":5664,"byteLength":67968,"byteStride":12,"name":"bufferViewFloatVec3"},{"buffer":0,"byteOffset":73632,"byteLength":22656,"byteStride":8,"name":"bufferViewFloatVec2"}],"buffers":[{"uri":"materialowy_chłopiec.bin","byteLength":96288}],"materials":[{"pbrMetallicRoughness":{"baseColorFactor":[0.9977368,0.7553957,0.179449067,1.0],"roughnessFactor":0.29},"name":"Material #22"},{"pbrMetallicRoughness":{"baseColorFactor":[0.244604319,0.0514236,0.0439935848,1.0],"roughnessFactor":0.399999976},"name":"Material #34"},{"pbrMetallicRoughness":{"baseColorFactor":[0.7266187,0.460017562,0.489208639,1.0],"metallicFactor":0.0,"roughnessFactor":0.630481},"name":"Material #68"},{"pbrMetallicRoughness":{"baseColorFactor":[0.07058824,0.07058824,0.07058824,1.0],"metallicFactor":0.0,"roughnessFactor":0.630481},"name":"Material #69"},{"pbrMetallicRoughness":{"baseColorFactor":[0.446043164,0.0385073051,0.0385073051,1.0],"metallicFactor":0.0,"roughnessFactor":0.546446562},"name":"Material #71"},{"pbrMetallicRoughness":{"baseColorFactor":[0.0352518,0.0352518,0.0352518,1.0],"metallicFactor":0.0,"roughnessFactor":0.459999979},"name":"Material #72"}]}